<?xml version="1.0" encoding="utf-8"?>

<!DOCTYPE svg PUBLIC "-//W3C//DTD SVG 1.1//EN" "http://www.w3.org/Graphics/SVG/1.1/DTD/svg11.dtd">
<svg version="1.1" id="Layer_1" xmlns="http://www.w3.org/2000/svg" xmlns:xlink="http://www.w3.org/1999/xlink" x="0px" y="0px"
	 viewBox="0 0 1621.956 1625.709" enable-background="new 0 0 1621.956 1625.709" xml:space="preserve">
<g>
	<g>
		<g>
			<path d="M1494.441,924.928c5.604,16.586,42.985,6.556,4.303-30.823C1451.57,920.145,1484.771,937.599,1494.441,924.928z"/>
			<path d="M1480.5,935.37c5.967-0.417,9.937,7.048,7.474,14.197c-1.895,6.97-8.462,11.408-13.178,10.425
				C1463.993,957.717,1467.281,937.055,1480.5,935.37z"/>
			<path d="M1492.465,953.151c-1.261-15.417,14.32-19.823,18.177-4.866c0.895,3.467,0.805,7.615-0.708,11.283
				C1505.698,970.157,1493.22,965.813,1492.465,953.151z"/>
			<path d="M1453.452,932.423c-3.2-7.139,4.409-18.397,13.943-17.07c5.073,1.109,6.538,7.072,4.966,11.096
				C1469.797,935.939,1457.091,940.587,1453.452,932.423z"/>
			<path d="M1516.137,927.102c5.534-12.087,22.769,3.514,15.566,17.006C1525.818,955.009,1510.315,939.906,1516.137,927.102z"/>
		</g>
		<g>
			<path d="M1569.244,865.189c7.082,17.388,43.301,2.736,1.596-34.105C1526.194,864.274,1560.703,880.241,1569.244,865.189z"/>
			<path d="M1556.207,878.123c3.745-0.71,6.928,2.26,8.256,5.962c3.376,9.564-4.163,22.445-11.833,21.595
				C1541.479,904.42,1543.39,881.379,1556.207,878.123z"/>
			<path d="M1577.442,908.223c-11.206-4.816-10.328-27.475,0.293-28.45c6.054-0.468,13.226,10.054,9.871,21.437
				C1586.386,905.69,1582.002,910.142,1577.442,908.223z"/>
			<path d="M1528.076,871.285c0.957-7.214,6.479-13.956,13.339-13.631c5.156,0.666,7.181,7.038,5.992,11.617
				C1544.369,885.312,1525.266,885.676,1528.076,871.285z"/>
			<path d="M1597.732,885.236c-11.333-7.496-8.625-27.66,1.018-25.277c7.775,2.166,12.727,13.07,9.25,22.033
				C1606.302,886.366,1601.199,887.821,1597.732,885.236z"/>
		</g>
	</g>
	<g>
		<g>
			<path d="M1447.879,1085.206c1.355,17.215,40.196,17.026,11.582-28.878C1407.352,1070.145,1435.584,1094.978,1447.879,1085.206z"
				/>
			<path d="M1431.824,1091.975c5.734,0.998,8.074,9.009,3.807,15.568c-3.727,6.609-11.116,8.962-15.286,6.951
				C1410.416,1109.687,1418.522,1090.453,1431.824,1091.975z"/>
			<path d="M1440.416,1107.668c2.684-6.614,9.234-8.911,13.149-6.049c6.116,5.223,5.275,14.877,1.01,20.942
				C1446.669,1133.464,1434.241,1121.6,1440.416,1107.668z"/>
			<path d="M1406.298,1082.605c-1.371-7.972,8.895-16.714,17.609-13.218c7.058,3.505,3.653,14.319-4.583,18.03
				C1414.01,1089.721,1407.346,1088.607,1406.298,1082.605z"/>
			<path d="M1468.417,1092.546c8.389-10.36,21.128,8.615,10.984,20.245C1471.369,1121.989,1459.496,1103.702,1468.417,1092.546z"/>
		</g>
		<g>
			<path d="M1534.839,1045.203c2.591,18.589,41.541,13.016,9.692-32.768C1493.205,1034.143,1522.886,1057.687,1534.839,1045.203z"/>
			<path d="M1519.107,1054.645c6.061,0.338,8.585,8.992,4.867,16.323c-3.349,7.732-10.863,11.09-15.028,9.552
				C1498.589,1076.673,1505.678,1054.724,1519.107,1054.645z"/>
			<path d="M1527.79,1075.421c1.586-16.787,17.828-19.471,18.974-2.864c0.268,3.881-0.576,8.31-2.743,12.057
				C1537.864,1095.503,1526.25,1089.155,1527.79,1075.421z"/>
			<path d="M1492.731,1047.901c-1.875-8.205,7.724-19.395,16.945-16.681c4.842,1.882,5.23,8.541,2.941,12.691
				C1508.35,1053.856,1494.863,1057.231,1492.731,1047.901z"/>
			<path d="M1556.01,1050.455c7.633-12.253,21.998,6.792,12.448,20.394C1560.675,1081.772,1547.914,1063.541,1556.01,1050.455z"/>
		</g>
	</g>
	<g>
		<g>
			<path d="M1364.087,1229.615c-2.821,17.106,34.898,26.106,18.18-25.268C1328.105,1205.26,1349.931,1236.107,1364.087,1229.615z"/>
			<path d="M1346.875,1232.349c5.333,2.343,5.668,10.696-0.033,16.032c-5.418,5.622-12.987,6.008-16.511,3.098
				C1321.829,1244.431,1334.339,1227.688,1346.875,1232.349z"/>
			<path d="M1349.688,1267.215c-6.817-9.771,4.75-26.922,14.294-21.698c5.385,3.049,5.858,14.867-2.347,21.974
				C1358.389,1270.24,1352.527,1271.223,1349.688,1267.215z"/>
			<path d="M1326.764,1211.528c3.805-4.621,12.017-7.209,17.842-3.019c5.971,5.029,0.192,14.79-8.781,16.419
				C1325.369,1226.701,1321.101,1217.523,1326.764,1211.528z"/>
			<path d="M1382.268,1241.661c10.623-8.05,18.449,13.426,5.816,22.288C1378.05,1270.932,1370.95,1250.347,1382.268,1241.661z"/>
		</g>
		<g>
			<path d="M1458.113,1211.656c-1.762,16.692,26.151,19.183,23.306-7.719c-0.656-6.625-3.157-14.207-6.022-21.747
				C1419.914,1190.896,1443.998,1220.568,1458.113,1211.656z"/>
			<path d="M1440.577,1217.038c5.812,1.789,6.159,10.8,0.796,17.004c-5.185,6.774-13.246,8.123-16.875,5.664
				C1415.363,1233.484,1427.507,1213.885,1440.577,1217.038z"/>
			<path d="M1444.01,1239.281c5.491-15.878,21.995-14.63,19.107,1.783C1459.408,1262.162,1436.884,1259.116,1444.01,1239.281z"/>
			<path d="M1418.848,1197.843c3.665-5.493,11.97-9.453,18.201-5.81c4.262,3,3.02,9.545-0.201,13.021
				C1427.131,1217.829,1409.759,1209.483,1418.848,1197.843z"/>
			<path d="M1473.965,1242.689c-4.861-9.039,0.599-22.077,8.062-23.164c8.877-1.339,12.485,16.341,2.561,25.102
				C1481.018,1247.684,1475.813,1246.587,1473.965,1242.689z"/>
		</g>
	</g>
	<g>
		<g>
			<path d="M1248.209,1349.893c-6.881,16.167,27.963,33.355,23.678-20.212C1218.843,1317.927,1232.946,1352.845,1248.209,1349.893z"
				/>
			<path d="M1230.849,1348.463c4.743,3.649,2.75,11.859-3.848,15.564c-6.664,4.181-14.075,2.7-16.777-0.927
				C1203.642,1354.224,1219.806,1340.939,1230.849,1348.463z"/>
			<path d="M1225.28,1382.992c-4.312-11.118,11.045-25.015,19.054-17.664c4.493,4.237,2.098,15.926-7.524,20.766
				C1233.005,1387.998,1227.083,1387.56,1225.28,1382.992z"/>
			<path d="M1216.273,1323.454c4.776-3.606,13.389-4.142,18.052,1.317c4.667,6.394-3.62,14.488-12.453,13.838
				C1211.533,1337.871,1209.166,1328.08,1216.273,1323.454z"/>
			<path d="M1254.232,1383.445c-2.677-13.492,12.624-23.551,17.487-15.17c4.15,7.645-0.775,17.746-8.362,20.694
				C1259.293,1390.46,1254.854,1387.617,1254.232,1383.445z"/>
		</g>
		<g>
			<path d="M1343.808,1354.851c-6.319,17.602,30.68,30.9,23.808-24.483C1312.125,1325.654,1327.402,1360.351,1343.808,1354.851z"/>
			<path d="M1325.492,1355.892c5.208,3.115,3.429,11.952-3.263,16.717c-6.95,5.401-14.846,4.681-17.741,1.477
				C1297.022,1365.783,1313.656,1349.752,1325.492,1355.892z"/>
			<path d="M1323.534,1378.314c9.787-14.528,24.575-8.392,18.134,6.289c-1.668,3.772-4.571,7.255-8.025,9.39
				C1323.145,1400.785,1315.813,1389.759,1323.534,1378.314z"/>
			<path d="M1305.271,1337.665c2.121-8.099,15.84-13.599,22.758-6.892c3.412,3.918,0.661,9.993-3.294,12.603
				C1316.345,1350.187,1302.827,1346.926,1305.271,1337.665z"/>
			<path d="M1360.11,1369.344c12.459-7.284,16.326,16.268,1.552,23.828C1349.729,1399.214,1346.852,1377.168,1360.11,1369.344z"/>
		</g>
	</g>
	<g>
		<g>
			<path d="M1107.04,1439.057c-10.48,13.974,18.856,39.124,27.811-13.96C1086.978,1401.088,1090.971,1438.245,1107.04,1439.057z"/>
			<path d="M1090.534,1433.511c3.731,4.679-0.166,12.172-7.456,14.189c-7.486,2.467-14.311-0.771-16.059-4.925
				C1062.759,1432.585,1081.615,1423.561,1090.534,1433.511z"/>
			<path d="M1076.866,1465.695c-1.518-11.799,16.698-21.651,22.723-12.582c3.347,5.189-1.771,15.966-12.274,18.359
				C1083.165,1472.408,1077.522,1470.563,1076.866,1465.695z"/>
			<path d="M1082.366,1405.745c5.495-2.355,13.971-0.826,17.202,5.607c3.006,7.335-7.024,13.199-15.39,10.443
				C1074.233,1418.571,1074.435,1408.517,1082.366,1405.745z"/>
			<path d="M1104.862,1473.074c0.63-13.701,17.885-19.88,20.611-10.539c2.206,8.357-4.969,17.039-13.071,18.092
				C1108.081,1481.09,1104.467,1477.264,1104.862,1473.074z"/>
		</g>
		<g>
			<path d="M1198.686,1466.702c-10.331,15.611,22.479,37.278,28.966-18.105C1174.813,1430.813,1181.478,1468.147,1198.686,1466.702z
				"/>
			<path d="M1182.035,1465.494c3.918,12.193-20.633,20.742-26.131,10.512C1149.409,1463.864,1178.049,1453.563,1182.035,1465.494z"
				/>
			<path d="M1177.443,1481.632c7.077-4.369,13.792-2.09,15.1,2.307c1.654,7.995-5.619,15.928-13.083,18.354
				C1166.107,1506.926,1162.375,1490.743,1177.443,1481.632z"/>
			<path d="M1170.293,1436.297c5.785-3.183,14.963-2.876,18.807,3.254c3.461,6.718-6.112,14.458-15.966,12.776
				C1162.318,1450.473,1161.831,1440.084,1170.293,1436.297z"/>
			<path d="M1211.061,1484.663c13.979-4.188,11.74,19.931-4.185,23.512C1193.825,1511.215,1196.335,1489.114,1211.061,1484.663z"/>
		</g>
	</g>
	<g>
		<g>
			<path d="M948.651,1491.688c-13.449,10.888,8.792,42.705,30.348-6.863C938.101,1449.789,933.327,1486.995,948.651,1491.688z"/>
			<path d="M933.959,1482.287c5.602,12.181-20.605,17.726-24.968,3.814C906.53,1474.88,927.611,1470.301,933.959,1482.287z"/>
			<path d="M925.918,1498.281c18.29-3.939,15.317,20.348-4.227,20.094C908.376,1518.369,910.748,1501.204,925.918,1498.281z"/>
			<path d="M942.019,1455.214c13.879,7.872,1.846,22.225-11.402,14.192C917.902,1461.777,928.897,1447.759,942.019,1455.214z"/>
			<path d="M938.341,1524.188c3.83-13.209,22.138-14.976,22.533-5.313C961.081,1535.531,933.347,1538.38,938.341,1524.188z"/>
		</g>
		<g>
			<path d="M1030.941,1540.572c-10.747,9.846,2.424,26.461,16.227,16.368c7.792-5.698,12.858-17.961,16.253-26.986
				C1015.979,1499.721,1014.403,1537.894,1030.941,1540.572z"/>
			<path d="M1014.239,1532.981c3.178,5.211-2.58,12.175-10.68,13.263c-8.354,1.636-15.306-2.694-16.393-6.951
				C984.459,1528.599,1006.536,1521.951,1014.239,1532.981z"/>
			<path d="M1002.06,1551.916c14.632-8.248,26.183,3.613,13.127,13.997C998.364,1579.3,983.597,1562.037,1002.06,1551.916z"/>
			<path d="M1004.821,1507.436c5.758-6.228,20.363-4.616,23.351,4.485c1.199,5.055-4.064,9.151-8.781,9.619
				C1008.757,1523.669,998.356,1514.474,1004.821,1507.436z"/>
			<path d="M1022.235,1574.32c3.178-13.476,22.88-17.763,24.046-7.955c0.785,8.645-8.628,16.49-17.373,16.445
				C1024.206,1582.735,1021.033,1578.466,1022.235,1574.32z"/>
		</g>
	</g>
	<g>
		<g>
			<path d="M782.13,1504.744c-16.04,7.76-0.796,43.345,31.144,0.615C781.021,1461.249,769.006,1497.118,782.13,1504.744z"/>
			<path d="M770.08,1492.132c1.137,5.882-5.875,10.776-13.207,9.174c-7.817-1.407-12.325-7.374-11.948-11.825
				C745.899,1478.24,766.877,1479.431,770.08,1492.132z"/>
			<path d="M743.013,1514.352c4.194-11.316,24.877-11.282,25.982-0.655c0.538,5.946-8.755,13.47-19.401,10.575
				C745.482,1523.201,741.334,1518.976,743.013,1514.352z"/>
			<path d="M775.745,1463.811c6.629,0.671,12.799,6.113,12.653,12.9c-0.493,5.172-6.247,7.377-10.437,6.326
				C763.3,1480.641,762.731,1461.453,775.745,1463.811z"/>
			<path d="M782.577,1526.536c12.605,3.946-0.616,23.005-15.012,17.475C756.108,1539.572,769.022,1522.245,782.577,1526.536z"/>
		</g>
		<g>
			<path d="M850.376,1571.939c-16.386,8.868,2.274,43.375,34.055-2.538C846.283,1529.026,834.309,1565.018,850.376,1571.939z"/>
			<path d="M836.212,1563.039c-2.24,12.656-27.894,8.754-28.002-2.832C808.082,1546.23,838.205,1550.845,836.212,1563.039z"/>
			<path d="M814.906,1577.86c10.667-6.045,23.505-1.189,22.008,6.396c-2.973,10.304-19.12,13.182-25.783,7.672
				C805.73,1587.36,809.276,1581.051,814.906,1577.86z"/>
			<path d="M839.431,1531.712c6.198-0.067,14.591,4.294,15.12,11.657c-0.049,5.196-6.131,8.057-10.825,7.282
				C827.379,1549.604,824.874,1530.744,839.431,1531.712z"/>
			<path d="M833.861,1602.59c6.16-12.334,26.412-11.763,25.208-2.025C856.519,1617.15,826.285,1615.846,833.861,1602.59z"/>
		</g>
	</g>
	<g>
		<g>
			<path d="M617.344,1477.922c-17.239,3.523-11.504,41.982,30.068,7.991C627.256,1435.557,606.31,1467.087,617.344,1477.922z"/>
			<path d="M608.671,1462.828c-0.296,5.853-8.053,9.062-14.986,5.662c-7.167-3.054-10.218-10.005-8.75-14.334
				C588.501,1443.721,608.592,1449.436,608.671,1462.828z"/>
			<path d="M577.097,1477.84c6.714-9.852,26.849-5.116,25.348,5.66c-0.931,6.085-11.837,10.767-21.364,5.604
				C577.358,1487.047,574.359,1481.917,577.097,1477.84z"/>
			<path d="M620.978,1436.621c5.672,1.882,10.993,8.668,9.15,15.605c-2.605,7.461-13.915,5.272-18.443-2.38
				C606.404,1440.859,613.202,1433.42,620.978,1436.621z"/>
			<path d="M602.443,1497.303c15.671-2.33,18.926,14.245,3.398,17.444C588.596,1518.302,585.157,1499.874,602.443,1497.303z"/>
		</g>
		<g>
			<path d="M667.609,1559.381c-18.019,4.842-7.987,42.802,33.693,5.656C673.367,1516.233,654.18,1549.388,667.609,1559.381z"/>
			<path d="M655.943,1547.434c-5.182,11.793-29.193,1.807-26.535-9.454C632.601,1524.579,660.868,1535.871,655.943,1547.434z"/>
			<path d="M641.802,1556.479c19.912,3.44,7.769,25.115-12.192,16.797C616.549,1567.894,624.414,1553.325,641.802,1556.479z"/>
			<path d="M666.51,1517.809c6.443,1.442,13.112,7.745,11.926,14.882c-1.847,7.262-14.086,6.881-20.425-1.014
				C651.016,1522.968,657.882,1515.023,666.51,1517.809z"/>
			<path d="M664.966,1581.03c13.276,6.125-4.466,22.718-18.727,14.825C634.477,1589.501,650.932,1574.597,664.966,1581.03z"/>
		</g>
	</g>
	<g>
		<g>
			<path d="M463.893,1412.24c-17.367-0.748-21.699,37.783,27.269,14.998C483.796,1374.021,455.493,1398.544,463.893,1412.24z"/>
			<path d="M459.114,1395.478c-1.685,5.575-9.921,6.926-15.918,1.897c-6.126-4.512-7.55-12.125-5.058-16.016
				C444.112,1372.078,462.227,1382.463,459.114,1395.478z"/>
			<path d="M442.494,1402.111c6.149,3.411,7.782,10.192,4.419,13.782c-5.928,5.445-15.406,3.438-20.913-1.528
				C416.067,1405.145,429.46,1394.327,442.494,1402.111z"/>
			<path d="M483.113,1380.538c5.146,15.297-13.404,17.712-17.962,3.083C460.83,1369.133,478.313,1366.547,483.113,1380.538z"/>
			<path d="M434.63,1429.727c11.61-7.275,26.519,3.446,20.381,10.981c-5.535,6.497-16.75,5.681-22.311-0.518
				C429.87,1437.051,430.903,1431.803,434.63,1429.727z"/>
		</g>
		<g>
			<path d="M493.062,1503.41c-18.43,0.294-18.314,39.772,31.348,13.595C509.008,1462.992,482.449,1490.405,493.062,1503.41z"/>
			<path d="M485.598,1486.652c-1.077,6.008-10.005,7.399-16.786,2.84c-7.31-4.307-9.685-12.134-7.66-16.07
				C466.221,1463.618,487.15,1473.284,485.598,1486.652z"/>
			<path d="M463.93,1492.743c16.409,3.534,17.197,20.074,0.538,19.184C443.124,1510.79,443.313,1488.098,463.93,1492.743z"/>
			<path d="M502.029,1462.764c5.895,2.975,10.832,10.735,7.966,17.367c-2.46,4.587-9.11,4.15-12.95,1.372
				C483.152,1473.384,489.395,1455.159,502.029,1462.764z"/>
			<path d="M464.166,1522.893c8.406-5.927,22.019-2.047,23.977,5.211c2.404,8.647-14.717,14.366-24.615,5.569
				C460.06,1530.498,460.517,1525.198,464.166,1522.893z"/>
		</g>
	</g>
	<g>
		<g>
			<path d="M330.595,1311.642c-16.63-4.836-30.131,31.53,22.906,21.085C359.077,1278.856,325.835,1296.807,330.595,1311.642z"/>
			<path d="M329.935,1294.233c-2.984,5.045-11.347,4.277-15.911-1.958c-4.935-6.053-4.395-13.628-1.096-16.766
				C320.939,1267.919,336.082,1282.345,329.935,1294.233z"/>
			<path d="M294.987,1292.842c10.511-5.602,26.168,7.947,19.825,16.797c-3.652,4.954-15.497,4.036-21.525-4.974
				C290.941,1301.113,290.669,1295.179,294.987,1292.842z"/>
			<path d="M353.02,1276.762c4.145,4.319,5.715,12.8,0.859,18.078c-5.748,5.362-14.764-1.721-15.242-10.697
				C338.136,1273.808,347.589,1270.252,353.02,1276.762z"/>
			<path d="M308.39,1321.861c14.924,5.224,10.15,21.414-5.109,17.026C286.362,1334.005,291.901,1316.09,308.39,1321.861z"/>
		</g>
		<g>
			<path d="M337.131,1407.146c-16.395-3.756-22.132,23.662,4.855,24.063c6.657,0.142,14.476-1.418,22.31-3.362
				C362.309,1371.697,329.926,1391.959,337.131,1407.146z"/>
			<path d="M333.9,1389.089c-2.473,5.554-11.463,4.82-16.981-1.245c-6.016-5.862-6.526-14.063-3.594-17.434
				C320.607,1362.079,338.595,1376.515,333.9,1389.089z"/>
			<path d="M311.404,1389.833c15.063,7.399,11.93,23.595-4.065,18.752c-3.694-1.118-7.544-3.471-10.288-6.838
				C289.08,1392.158,299.095,1383.516,311.404,1389.833z"/>
			<path d="M349.573,1366.828c8.394,1.197,15.365,14.141,9.568,21.77c-3.481,3.857-9.838,1.85-12.901-1.767
				C338.439,1379.267,340.117,1365.51,349.573,1366.828z"/>
			<path d="M304.422,1419.156c9.587-3.756,21.867,3.301,22.019,10.785c0.236,9.009-17.803,10.396-25.218-0.475
				C298.614,1425.554,300.335,1420.522,304.422,1419.156z"/>
		</g>
	</g>
	<g>
		<g>
			<path d="M225.085,1182.187c-15.115-8.702-36.623,23.419,17.218,25.93C260.368,1157.707,223.945,1166.123,225.085,1182.187z"/>
			<path d="M228.596,1165.128c-4.193,4.269-12.105,1.306-14.992-5.686c-3.294-6.721-1.103-14.229,2.944-16.541
				C226.157,1137.432,237.385,1155.082,228.596,1165.128z"/>
			<path d="M207.868,1159.733c11.139,10.666,2.435,24.381-10.391,15.702C181.228,1164.322,193.772,1146.226,207.868,1159.733z"/>
			<path d="M255.169,1153.667c3.004,5.173,2.514,13.775-3.483,17.759c-6.927,3.874-13.961-5.403-12.23-14.024
				C241.484,1146.965,251.666,1146.303,255.169,1153.667z"/>
			<path d="M191.053,1184.134c13.686-1.034,21.878,15.361,12.952,19.187c-8.037,3.201-17.529-2.89-19.536-10.79
				C183.485,1188.297,186.847,1184.249,191.053,1184.134z"/>
		</g>
		<g>
			<path d="M208.688,1276.499c-16.741-8.384-34.319,26.777,21.453,26.574C241.456,1248.532,205.186,1259.568,208.688,1276.499z"/>
			<path d="M207.884,1259.826c-11.607,5.346-23.089-17.96-13.58-24.672C205.577,1227.241,219.257,1254.431,207.884,1259.826z"/>
			<path d="M191.315,1257.211c5.183,6.495,3.734,13.438-0.477,15.268c-7.779,2.619-16.518-3.722-19.792-10.772
				C164.815,1248.957,180.505,1243.393,191.315,1257.211z"/>
			<path d="M235.46,1244.651c3.854,5.362,4.65,14.512-0.972,19.066c-6.224,4.224-15.077-4.266-14.603-14.313
				C220.423,1238.474,230.64,1236.687,235.46,1244.651z"/>
			<path d="M192.346,1290.945c5.793,13.284-18.227,14.178-23.841-1.32C163.921,1277.038,186.163,1276.862,192.346,1290.945z"/>
		</g>
	</g>
	<g>
		<g>
			<path d="M153.638,1031.324c-12.555-12.079-41.243,13.992,10.487,29.292C193.928,1015.192,156.313,1016.034,153.638,1031.324z"/>
			<path d="M161.15,1015.614c-5.024,3.101-12.038-1.533-13.168-9.125c-1.565-7.713,2.492-14.107,6.833-15.339
				C165.455,988.157,172.111,1007.952,161.15,1015.614z"/>
			<path d="M130.867,998.14c11.913-0.06,19.462,19.191,9.73,24.081c-5.534,2.686-15.561-3.602-16.748-14.407
				C123.432,1003.578,125.959,998.199,130.867,998.14z"/>
			<path d="M189.709,1010.874c1.665,5.739-0.903,13.973-7.652,16.389c-7.595,2.082-12.245-8.388-8.515-16.534
				C177.904,1001.374,187.925,1002.585,189.709,1010.874z"/>
			<path d="M129.229,1030.054c10.8,11.576-0.996,23.673-12.437,12.699C104.083,1030.57,117.289,1017.259,129.229,1030.054z"/>
		</g>
		<g>
			<path d="M115.098,1118.944c-14.276-12.176-39.713,17.82,14.477,30.948C153.592,1099.596,115.748,1101.683,115.098,1118.944z"/>
			<path d="M118.308,1102.56c-12.582,2.413-18.096-23-7.266-27.218C123.898,1070.361,130.628,1100.051,118.308,1102.56z"/>
			<path d="M102.85,1096.044c3.45,7.498,0.438,13.943-4.122,14.715c-8.223,0.681-15.173-7.66-16.638-15.215
				C79.104,1081.665,95.672,1080.032,102.85,1096.044z"/>
			<path d="M148.717,1094.436c2.458,6.128,1.041,15.202-5.508,18.277c-7.055,2.611-13.62-7.755-10.751-17.395
				C135.606,1084.818,145.949,1085.563,148.717,1094.436z"/>
			<path d="M95.773,1129.057c2.446,14.282-21.099,9.414-22.837-7.004C71.501,1108.725,93.136,1113.892,95.773,1129.057z"/>
		</g>
	</g>
	<g>
		<g>
			<path d="M120.599,867.691c-9.495-14.724-43.139,3.666,3.133,30.973C163.612,862.245,126.857,853.046,120.599,867.691z"/>
			<path d="M129.186,854.51c-12.755-1.669-9.325-25.18,2.166-25.583C145.436,828.465,141.41,855.959,129.186,854.51z"/>
			<path d="M106.423,829.986c11.871,2.879,14.124,23.384,3.768,25.724c-5.804,1.233-14.363-6.899-12.807-18.009
				C97.932,833.409,101.677,828.873,106.423,829.986z"/>
			<path d="M160.557,856.487c0.177,10.773-11.834,18.735-17.28,10.945c-1.371-1.969-1.881-4.297-1.564-6.461
				C142.456,845.939,161.236,843.425,160.557,856.487z"/>
			<path d="M99.025,870.722c-2.3,12.842-22.849,2.415-19.1-12.833C82.781,846.404,101.428,856.056,99.025,870.722z"/>
		</g>
		<g>
			<path d="M62.109,943.468c-10.785-15.185-42.966,7.558,6.608,33.522C104.004,933.775,66.944,926.95,62.109,943.468z"/>
			<path d="M71.677,927.811c-5.383,2.454-11.755-3.724-11.847-12.208c-0.594-8.623,4.503-14.86,8.868-15.425
				C79.626,898.786,83.598,921.442,71.677,927.811z"/>
			<path d="M55.773,918.292c1.494,7.962-2.897,13.64-7.58,13.29c-8.01-1.264-12.682-10.668-12.501-18.764
				C36.158,898.104,53.127,901.747,55.773,918.292z"/>
			<path d="M98.157,921.562c5.632,6.681,1.931,20.809-7.246,22.629c-7.772,0.873-11.092-11.139-6.283-19.466
				C87.767,919.462,93.933,916.583,98.157,921.562z"/>
			<path d="M40.91,948.627c-1.253,14.41-22.454,4.344-20.461-12.299C22.009,923.167,42.086,933.073,40.91,948.627z"/>
		</g>
	</g>
	<g>
		<g>
			<path d="M127.514,700.781c-5.599-16.573-42.989-6.56-4.303,30.824C170.387,705.563,137.185,688.109,127.514,700.781z"/>
			<path d="M141.455,690.34c-5.967,0.416-9.937-7.048-7.475-14.197c1.909-7.025,8.511-11.397,13.178-10.425
				C157.963,667.992,154.674,688.654,141.455,690.34z"/>
			<path d="M129.491,672.558c1.261,15.427-14.319,19.824-18.178,4.866c-0.9-3.487-0.799-7.63,0.708-11.283
				C116.249,655.573,128.734,659.879,129.491,672.558z"/>
			<path d="M168.504,693.286c3.201,7.139-4.409,18.397-13.943,17.07c-5.073-1.109-6.538-7.072-4.966-11.096
				C152.159,689.77,164.865,685.122,168.504,693.286z"/>
			<path d="M105.819,698.607c-5.538,12.097-22.762-3.528-15.566-17.006C96.138,670.701,111.64,685.802,105.819,698.607z"/>
		</g>
		<g>
			<path d="M52.711,760.52c-7.081-17.386-43.303-2.738-1.596,34.105C95.924,761.314,61.226,745.516,52.711,760.52z"/>
			<path d="M65.749,747.587c-3.748,0.711-6.93-2.265-8.256-5.962c-3.376-9.564,4.164-22.445,11.833-21.595
				C80.477,721.289,78.565,744.33,65.749,747.587z"/>
			<path d="M44.513,717.487c11.206,4.816,10.328,27.475-0.293,28.45c-6.054,0.468-13.226-10.054-9.871-21.437
				C35.569,720.02,39.953,715.567,44.513,717.487z"/>
			<path d="M93.88,754.424c-0.957,7.213-6.479,13.956-13.339,13.631c-5.156-0.666-7.181-7.038-5.992-11.617
				C77.587,740.397,96.69,740.033,93.88,754.424z"/>
			<path d="M24.223,740.473c11.333,7.496,8.625,27.66-1.018,25.277c-7.925-2.208-12.667-13.223-9.251-22.033
				C15.654,739.343,20.756,737.889,24.223,740.473z"/>
		</g>
	</g>
	<g>
		<g>
			<path d="M174.077,540.503c-1.353-17.19-40.202-17.038-11.582,28.878C214.603,555.563,186.371,530.732,174.077,540.503z"/>
			<path d="M190.132,533.734c-5.733-0.998-8.074-9.009-3.807-15.568c3.735-6.624,11.124-8.956,15.286-6.951
				C211.539,516.022,203.435,535.256,190.132,533.734z"/>
			<path d="M181.539,518.041c-2.677,6.596-9.225,8.918-13.148,6.049c-6.116-5.223-5.275-14.877-1.01-20.942
				C175.321,492.197,187.691,504.163,181.539,518.041z"/>
			<path d="M215.657,543.105c1.371,7.973-8.895,16.714-17.609,13.218c-7.042-3.496-3.673-14.311,4.583-18.03
				C207.945,535.988,214.609,537.102,215.657,543.105z"/>
			<path d="M153.538,533.164c-8.389,10.36-21.128-8.614-10.983-20.245C150.588,503.717,162.46,522.008,153.538,533.164z"/>
		</g>
		<g>
			<path d="M87.117,580.506c-2.591-18.589-41.54-13.017-9.692,32.768C128.75,591.568,99.07,568.022,87.117,580.506z"/>
			<path d="M102.849,571.064c-6.061-0.338-8.585-8.992-4.867-16.323c3.328-7.684,10.823-11.103,15.028-9.552
				C123.367,549.036,116.278,570.985,102.849,571.064z"/>
			<path d="M94.165,550.288c-1.578,16.716-17.821,19.57-18.974,2.864c-0.269-3.887,0.58-8.316,2.743-12.056
				C84.076,530.233,95.709,536.53,94.165,550.288z"/>
			<path d="M129.225,577.808c1.874,8.205-7.723,19.395-16.945,16.681c-4.842-1.882-5.23-8.541-2.941-12.691
				C113.606,571.852,127.092,568.48,129.225,577.808z"/>
			<path d="M65.946,575.255c-7.633,12.252-22.001-6.789-12.448-20.394C61.269,543.953,74.048,562.157,65.946,575.255z"/>
		</g>
	</g>
	<g>
		<g>
			<path d="M257.869,396.095c2.82-17.106-34.897-26.103-18.18,25.268C293.85,420.449,272.025,389.602,257.869,396.095z"/>
			<path d="M275.081,393.361c-5.333-2.343-5.668-10.696,0.033-16.032c5.454-5.66,13.02-5.98,16.511-3.098
				C300.127,381.279,287.617,398.021,275.081,393.361z"/>
			<path d="M272.267,358.494c6.817,9.77-4.751,26.922-14.294,21.699c-5.385-3.049-5.858-14.867,2.347-21.974
				C263.569,355.467,269.43,354.489,272.267,358.494z"/>
			<path d="M295.191,414.181c-3.805,4.621-12.016,7.209-17.841,3.019c-5.972-5.029-0.193-14.79,8.781-16.419
				C296.587,399.008,300.855,408.186,295.191,414.181z"/>
			<path d="M239.687,384.048c-10.623,8.05-18.449-13.426-5.816-22.288C243.924,354.764,250.994,375.372,239.687,384.048z"/>
		</g>
		<g>
			<path d="M163.843,414.053c1.765-16.717-26.148-19.153-23.306,7.719c0.655,6.625,3.157,14.207,6.022,21.747
				C202.037,434.813,177.959,405.14,163.843,414.053z"/>
			<path d="M181.379,408.671c-5.812-1.789-6.159-10.8-0.796-17.004c5.168-6.751,13.229-8.136,16.875-5.664
				C206.593,392.225,194.449,411.824,181.379,408.671z"/>
			<path d="M177.946,386.429c-5.486,15.863-21.997,14.64-19.107-1.783C162.57,363.42,185.055,366.639,177.946,386.429z"/>
			<path d="M203.108,427.866c-3.665,5.493-11.97,9.453-18.201,5.81c-4.262-3-3.02-9.545,0.201-13.021
				C194.825,407.88,212.196,416.225,203.108,427.866z"/>
			<path d="M147.99,383.02c4.861,9.039-0.6,22.077-8.062,23.164c-8.875,1.338-12.487-16.34-2.561-25.102
				C140.938,378.026,146.143,379.122,147.99,383.02z"/>
		</g>
	</g>
	<g>
		<g>
			<path d="M373.746,275.816c6.882-16.168-27.962-33.352-23.678,20.212C403.112,307.782,389.01,272.865,373.746,275.816z"/>
			<path d="M391.106,277.247c-4.743-3.649-2.75-11.859,3.848-15.565c6.667-4.183,14.076-2.698,16.777,0.927
				C418.314,271.486,402.147,284.769,391.106,277.247z"/>
			<path d="M396.676,242.718c4.312,11.118-11.046,25.015-19.054,17.664c-4.493-4.237-2.098-15.926,7.524-20.766
				C388.952,237.711,394.873,238.151,396.676,242.718z"/>
			<path d="M405.682,302.255c-4.776,3.606-13.389,4.142-18.051-1.317c-4.667-6.394,3.62-14.488,12.453-13.838
				C410.422,287.838,412.79,297.63,405.682,302.255z"/>
			<path d="M367.723,242.264c2.676,13.488-12.623,23.553-17.487,15.17c-4.149-7.642,0.771-17.744,8.361-20.694
				C362.662,235.249,367.102,238.092,367.723,242.264z"/>
		</g>
		<g>
			<path d="M278.148,270.858c6.326-17.622-30.677-30.878-23.808,24.483C309.829,300.056,294.554,265.358,278.148,270.858z"/>
			<path d="M296.464,269.818c-5.217-3.121-3.415-11.962,3.263-16.717c6.997-5.437,14.875-4.651,17.741-1.477
				C324.932,259.924,308.303,275.959,296.464,269.818z"/>
			<path d="M298.422,247.396c-9.787,14.527-24.575,8.392-18.134-6.289c1.668-3.772,4.571-7.255,8.025-9.39
				C298.782,224.943,306.158,235.927,298.422,247.396z"/>
			<path d="M316.685,288.044c-2.121,8.098-15.84,13.599-22.758,6.892c-3.412-3.918-0.661-9.993,3.294-12.603
				C305.61,275.522,319.129,278.783,316.685,288.044z"/>
			<path d="M261.846,256.366c-12.459,7.284-16.326-16.268-1.552-23.827C272.205,226.506,275.119,248.532,261.846,256.366z"/>
		</g>
	</g>
	<g>
		<g>
			<path d="M514.916,186.653c10.478-13.972-18.855-39.128-27.811,13.96C534.972,224.618,530.986,187.464,514.916,186.653z"/>
			<path d="M531.422,192.199c-3.731-4.679,0.167-12.172,7.456-14.189c7.426-2.448,14.291,0.722,16.059,4.925
				C559.197,193.125,540.34,202.148,531.422,192.199z"/>
			<path d="M545.09,160.014c1.518,11.799-16.698,21.651-22.723,12.582c-3.346-5.187,1.768-15.966,12.274-18.359
				C538.791,153.301,544.434,155.147,545.09,160.014z"/>
			<path d="M544.964,209.857c4.195,10.859-16.655,16.292-22.576,4.501C518.129,203.966,538.87,197.862,544.964,209.857
				L544.964,209.857z"/>
			<path d="M517.094,152.635c-0.63,13.701-17.885,19.879-20.611,10.539c-2.206-8.357,4.969-17.038,13.071-18.092
				C513.876,144.619,517.488,148.447,517.094,152.635z"/>
		</g>
		<g>
			<path d="M423.27,159.007c10.331-15.611-22.479-37.278-28.966,18.105C447.274,194.939,440.422,157.567,423.27,159.007z"/>
			<path d="M439.921,160.215c-3.918-12.193,20.627-20.746,26.131-10.512C472.547,161.845,443.905,172.147,439.921,160.215z"/>
			<path d="M444.512,144.077c-7.077,4.369-13.792,2.09-15.1-2.307c-1.655-8,5.625-15.93,13.083-18.354
				C455.849,118.783,459.581,134.966,444.512,144.077z"/>
			<path d="M451.663,189.413c-5.785,3.183-14.963,2.876-18.807-3.254c-3.461-6.717,6.112-14.458,15.966-12.776
				C459.637,175.236,460.125,185.625,451.663,189.413z"/>
			<path d="M422.809,120.83c1.405,2.555,1.207,8.183-2.811,13.599c-6.242,8.471-15.739,8.732-17.821,3.228
				C397.782,124.911,417.202,110.61,422.809,120.83L422.809,120.83z"/>
		</g>
	</g>
	<g>
		<g>
			<path d="M673.305,134.021c13.453-10.891-8.795-42.701-30.348,6.863C683.851,175.918,688.627,138.714,673.305,134.021z"/>
			<path d="M687.996,143.422c-5.573-12.114,20.592-17.769,24.968-3.814C715.425,150.795,694.363,155.443,687.996,143.422z"/>
			<path d="M696.038,127.429c-18.304,3.943-15.305-20.347,4.227-20.094C713.589,107.341,711.199,124.507,696.038,127.429z"/>
			<path d="M679.936,170.495c-13.878-7.871-1.847-22.225,11.402-14.192C704.061,163.936,693.054,177.948,679.936,170.495z"/>
			<path d="M683.898,98.137c1,5.964-6.668,15.515-16.208,14.806c-13.054-0.813-5.109-22.345,10.439-20.507
				C681.212,92.785,683.423,95.292,683.898,98.137L683.898,98.137z"/>
		</g>
		<g>
			<path d="M591.014,85.138c10.735-9.835-2.417-26.467-16.227-16.368c-7.792,5.698-12.859,17.963-16.252,26.986
				C606.039,126.029,607.375,87.786,591.014,85.138z"/>
			<path d="M607.717,92.728c-3.179-5.211,2.58-12.175,10.679-13.263c8.352-1.636,15.305,2.693,16.393,6.951
				C637.496,97.111,615.419,103.758,607.717,92.728z"/>
			<path d="M619.895,73.793c-14.609,8.234-26.204-3.597-13.127-13.998C623.593,46.408,638.361,63.671,619.895,73.793z"/>
			<path d="M617.135,118.273c-5.758,6.227-20.362,4.617-23.351-4.485c-1.199-5.055,4.064-9.15,8.781-9.619
				C613.194,102.041,623.602,111.232,617.135,118.273z"/>
			<path d="M599.721,51.39c-3.178,13.476-22.88,17.762-24.046,7.955c-0.784-8.644,8.626-16.49,17.373-16.445
				C597.749,42.975,600.923,47.244,599.721,51.39z"/>
		</g>
	</g>
	<g>
		<g>
			<path d="M839.826,120.965c16.013-7.747,0.808-43.362-31.144-0.615C840.877,164.384,853.007,128.625,839.826,120.965z"/>
			<path d="M851.876,133.577c-1.137-5.882,5.875-10.776,13.207-9.174c7.81,1.405,12.323,7.365,11.948,11.825
				C876.056,147.471,855.078,146.274,851.876,133.577z"/>
			<path d="M878.943,111.358c-4.193,11.315-24.877,11.284-25.982,0.655c-0.543-6.017,8.833-13.449,19.401-10.575
				C876.476,102.509,880.621,106.735,878.943,111.358z"/>
			<path d="M846.211,161.898c-6.616-0.669-12.799-6.101-12.654-12.9c0.493-5.172,6.247-7.377,10.437-6.326
				C858.677,145.072,859.212,164.254,846.211,161.898z"/>
			<path d="M858.641,88.631c-0.93,12.657-26.739,15.379-24.228,2.991C837.466,78.409,859.499,77.087,858.641,88.631L858.641,88.631z
				"/>
		</g>
		<g>
			<path d="M771.58,53.771c16.386-8.868-2.274-43.375-34.056,2.538C775.674,96.683,787.647,60.692,771.58,53.771z"/>
			<path d="M785.743,62.67c2.24-12.655,27.894-8.754,28.002,2.832C813.874,79.529,783.756,74.831,785.743,62.67z"/>
			<path d="M807.05,47.849c-10.667,6.046-23.506,1.189-22.008-6.396c2.974-10.307,19.123-13.18,25.783-7.672
				C816.231,38.354,812.67,44.664,807.05,47.849z"/>
			<path d="M782.524,93.997c-6.177,0.066-14.59-4.28-15.12-11.657c0.049-5.196,6.131-8.057,10.825-7.282
				C794.577,76.105,797.082,94.965,782.524,93.997z"/>
			<path d="M788.094,23.119c-6.16,12.334-26.412,11.763-25.208,2.025C765.433,8.583,795.697,9.818,788.094,23.119z"/>
		</g>
	</g>
	<g>
		<g>
			<path d="M1004.612,147.787c17.238-3.523,11.506-41.984-30.068-7.991C994.703,190.162,1015.642,158.619,1004.612,147.787z"/>
			<path d="M1013.285,162.881c0.296-5.853,8.053-9.062,14.986-5.662c7.177,3.059,10.215,10.017,8.75,14.334
				C1033.455,181.989,1013.363,176.273,1013.285,162.881z"/>
			<path d="M1044.858,147.87c-6.714,9.852-26.85,5.116-25.348-5.66c0.93-6.085,11.837-10.767,21.364-5.604
				C1044.6,138.664,1047.596,143.794,1044.858,147.87z"/>
			<path d="M1000.977,189.088c-5.672-1.882-10.993-8.668-9.15-15.605c2.605-7.461,13.915-5.272,18.443,2.38
				C1015.536,184.824,1008.775,192.298,1000.977,189.088z"/>
			<path d="M1019.512,128.407c-15.671,2.33-18.926-14.246-3.398-17.444C1033.341,107.412,1036.825,125.831,1019.512,128.407z"/>
		</g>
		<g>
			<path d="M954.347,66.328c18.019-4.842,7.988-42.8-33.693-5.656C948.582,109.463,967.772,76.318,954.347,66.328z"/>
			<path d="M966.012,78.275c5.155-11.732,29.203-1.849,26.535,9.454C989.367,101.079,961.073,89.874,966.012,78.275z"/>
			<path d="M980.154,69.231c-19.885-3.435-7.789-25.123,12.192-16.797C1005.357,57.794,997.571,72.39,980.154,69.231z"/>
			<path d="M955.446,107.9c-6.443-1.442-13.112-7.745-11.926-14.882c1.847-7.262,14.087-6.88,20.425,1.014
				C970.939,102.74,964.074,110.687,955.446,107.9z"/>
			<path d="M956.99,44.68c-13.276-6.126,4.466-22.718,18.727-14.825C987.483,36.21,971.021,51.111,956.99,44.68z"/>
		</g>
	</g>
	<g>
		<g>
			<path d="M1158.062,213.47c17.32,0.746,21.725-37.795-27.269-14.998C1138.189,251.892,1166.419,227.095,1158.062,213.47z"/>
			<path d="M1162.841,230.231c1.685-5.575,9.92-6.926,15.918-1.897c6.123,4.51,7.552,12.124,5.058,16.016
				C1177.844,253.63,1159.728,243.248,1162.841,230.231z"/>
			<path d="M1179.462,223.598c-6.149-3.411-7.782-10.191-4.419-13.782c5.928-5.445,15.406-3.438,20.913,1.528
				C1205.889,220.564,1192.496,231.382,1179.462,223.598z"/>
			<path d="M1138.843,245.172c-5.146-15.297,13.404-17.711,17.962-3.083C1161.134,256.601,1143.637,259.144,1138.843,245.172z"/>
			<path d="M1187.325,195.982c-11.609,7.274-26.518-3.446-20.381-10.981c5.535-6.497,16.75-5.681,22.311,0.518
				C1192.086,188.659,1191.053,193.906,1187.325,195.982z"/>
		</g>
		<g>
			<path d="M1128.893,122.299c18.443-0.294,18.318-39.775-31.348-13.595C1112.947,162.717,1139.507,135.305,1128.893,122.299z"/>
			<path d="M1136.357,139.057c1.078-6.008,10.006-7.398,16.786-2.84c7.282,4.291,9.697,12.108,7.66,16.07
				C1155.734,162.092,1134.805,152.426,1136.357,139.057z"/>
			<path d="M1158.025,132.967c-16.409-3.534-17.196-20.074-0.538-19.184C1178.832,114.919,1178.641,137.61,1158.025,132.967z"/>
			<path d="M1119.927,162.945c-5.895-2.975-10.832-10.735-7.966-17.367c2.46-4.587,9.11-4.15,12.95-1.372
				C1138.803,152.325,1132.562,170.549,1119.927,162.945z"/>
			<path d="M1160.09,100.283c-2.712,5.397-15.382,8.109-23.413,1.638c-11.226-9.051,9.183-21.054,21.752-9.884
				C1160.927,94.324,1161.385,97.712,1160.09,100.283L1160.09,100.283z"/>
		</g>
	</g>
	<g>
		<g>
			<path d="M1291.361,314.067c16.593,4.825,30.157-31.536-22.906-21.085C1262.879,346.852,1296.121,328.902,1291.361,314.067z"/>
			<path d="M1292.02,331.476c2.98-5.039,11.339-4.289,15.911,1.958c4.931,6.047,4.399,13.621,1.096,16.766
				C1301.016,357.79,1285.873,343.364,1292.02,331.476z"/>
			<path d="M1326.969,332.867c-10.511,5.602-26.168-7.947-19.825-16.797c3.653-4.954,15.497-4.036,21.525,4.974
				C1331.014,324.596,1331.287,330.53,1326.969,332.867z"/>
			<path d="M1268.936,348.948c-4.145-4.319-5.715-12.8-0.859-18.078c5.748-5.362,14.764,1.721,15.242,10.697
				C1283.819,351.901,1274.367,355.458,1268.936,348.948z"/>
			<path d="M1313.566,303.848c-14.924-5.224-10.15-21.415,5.109-17.026C1335.67,291.726,1330.004,309.601,1313.566,303.848z"/>
		</g>
		<g>
			<path d="M1284.824,218.563c16.397,3.756,22.136-23.662-4.855-24.062c-6.657-0.142-14.476,1.418-22.31,3.362
				C1259.65,254.11,1291.944,233.571,1284.824,218.563z"/>
			<path d="M1288.055,236.62c2.474-5.555,11.465-4.819,16.981,1.245c6.041,5.886,6.508,14.085,3.594,17.434
				C1301.349,263.629,1283.36,249.195,1288.055,236.62z"/>
			<path d="M1310.552,235.877c-15.078-7.406-11.93-23.595,4.065-18.752c3.717,1.125,7.558,3.488,10.288,6.838
				C1332.875,233.55,1322.861,242.193,1310.552,235.877z"/>
			<path d="M1272.383,258.881c-8.394-1.197-15.365-14.14-9.568-21.77c3.481-3.857,9.838-1.85,12.901,1.767
				C1283.516,246.442,1281.839,260.199,1272.383,258.881z"/>
			<path d="M1317.533,206.554c-9.587,3.756-21.867-3.302-22.019-10.785c-0.236-9.013,17.805-10.391,25.218,0.475
				C1323.343,200.157,1321.619,205.188,1317.533,206.554z"/>
		</g>
	</g>
	<g>
		<g>
			<path d="M1396.87,443.522c15.126,8.708,36.579-23.421-17.218-25.93C1361.577,468.031,1398.01,459.578,1396.87,443.522z"/>
			<path d="M1393.36,460.582c4.193-4.269,12.105-1.306,14.992,5.686c3.287,6.707,1.111,14.221-2.944,16.541
				C1395.799,488.277,1384.57,470.627,1393.36,460.582z"/>
			<path d="M1414.087,465.976c-11.161-10.687-2.399-24.357,10.391-15.702C1440.728,461.387,1428.184,479.483,1414.087,465.976z"/>
			<path d="M1366.787,472.042c-3.004-5.173-2.514-13.775,3.483-17.759c6.927-3.874,13.961,5.403,12.23,14.024
				C1380.475,478.726,1370.298,479.423,1366.787,472.042z"/>
			<path d="M1430.902,441.575c-13.686,1.035-21.878-15.361-12.952-19.187c8.037-3.201,17.528,2.89,19.536,10.79
				C1438.47,437.411,1435.11,441.46,1430.902,441.575z"/>
		</g>
		<g>
			<path d="M1413.268,349.211c16.741,8.384,34.32-26.777-21.453-26.574C1380.496,377.201,1416.768,366.134,1413.268,349.211z"/>
			<path d="M1414.072,365.883c11.607-5.346,23.088,17.967,13.58,24.672C1416.379,398.469,1402.704,371.277,1414.072,365.883z"/>
			<path d="M1430.641,368.498c-5.186-6.499-3.731-13.44,0.477-15.268c7.778-2.619,16.518,3.722,19.792,10.772
				C1457.159,376.789,1441.429,382.289,1430.641,368.498z"/>
			<path d="M1386.496,381.058c-3.854-5.362-4.65-14.512,0.972-19.066c6.224-4.224,15.077,4.266,14.603,14.312
				C1401.533,387.236,1391.316,389.022,1386.496,381.058z"/>
			<path d="M1429.609,334.764c-5.787-13.27,18.222-14.192,23.841,1.32C1458.035,348.671,1435.792,348.847,1429.609,334.764z"/>
		</g>
	</g>
	<g>
		<g>
			<path d="M1468.317,594.385c12.555,12.079,41.242-13.992-10.487-29.292C1428.028,610.517,1465.643,609.675,1468.317,594.385z"/>
			<path d="M1460.806,610.095c5.024-3.101,12.038,1.533,13.168,9.125c1.566,7.717-2.496,14.109-6.833,15.339
				C1456.501,637.552,1449.844,617.757,1460.806,610.095z"/>
			<path d="M1491.089,627.569c-11.914,0.059-19.462-19.191-9.73-24.081c5.532-2.685,15.561,3.596,16.748,14.407
				C1498.523,622.132,1495.997,627.51,1491.089,627.569z"/>
			<path d="M1432.246,614.836c-1.665-5.739,0.903-13.973,7.652-16.389c7.595-2.082,12.245,8.388,8.515,16.534
				C1444.052,624.335,1434.031,623.125,1432.246,614.836z"/>
			<path d="M1492.727,595.655c-10.792-11.567,0.99-23.678,12.437-12.699C1517.891,595.157,1504.635,608.416,1492.727,595.655z"/>
		</g>
		<g>
			<path d="M1506.857,506.766c14.267,12.169,39.714-17.82-14.477-30.948C1468.352,526.138,1506.208,524.018,1506.857,506.766z"/>
			<path d="M1503.647,523.149c12.58-2.413,18.099,22.993,7.266,27.218C1498.054,555.35,1491.329,525.658,1503.647,523.149z"/>
			<path d="M1519.106,529.665c-3.45-7.498-0.438-13.943,4.122-14.715c8.223-0.68,15.173,7.66,16.638,15.215
				C1542.853,544.052,1526.281,545.672,1519.106,529.665z"/>
			<path d="M1473.239,531.273c-2.458-6.128-1.041-15.202,5.508-18.277c7.054-2.611,13.62,7.755,10.751,17.395
				C1486.355,540.873,1476.011,540.162,1473.239,531.273z"/>
			<path d="M1526.183,496.653c-2.449-14.297,21.101-9.395,22.837,7.004C1550.455,516.985,1528.819,511.816,1526.183,496.653z"/>
		</g>
	</g>
	<g>
		<g>
			<path d="M1501.357,758.018c9.469,14.683,43.157-3.655-3.132-30.973C1458.344,763.464,1495.099,772.664,1501.357,758.018z"/>
			<path d="M1492.769,771.2c12.746,1.668,9.333,25.18-2.166,25.583C1476.519,797.244,1480.546,769.75,1492.769,771.2z"/>
			<path d="M1515.533,795.723c-11.871-2.879-14.124-23.384-3.768-25.724c5.802-1.233,14.363,6.895,12.808,18.009
				C1524.023,792.302,1520.277,796.836,1515.533,795.723z"/>
			<path d="M1461.399,769.222c-0.177-10.773,11.834-18.735,17.28-10.945c1.371,1.969,1.881,4.297,1.564,6.461
				C1479.5,779.77,1460.719,782.284,1461.399,769.222z"/>
			<path d="M1522.931,754.987c2.3-12.84,22.848-2.412,19.1,12.833C1539.168,779.329,1520.531,769.633,1522.931,754.987z"/>
		</g>
		<g>
			<path d="M1559.846,682.241c10.797,15.201,42.963-7.56-6.607-33.522C1517.904,691.992,1555.045,698.645,1559.846,682.241z"/>
			<path d="M1550.279,697.899c5.38-2.452,11.756,3.721,11.847,12.208c0.594,8.623-4.503,14.86-8.868,15.425
				C1542.328,726.923,1538.358,704.266,1550.279,697.899z"/>
			<path d="M1566.182,707.417c-1.494-7.962,2.896-13.64,7.58-13.29c8.009,1.264,12.682,10.668,12.501,18.764
				C1585.798,727.595,1568.83,723.976,1566.182,707.417z"/>
			<path d="M1523.799,704.147c-5.614-6.66-1.953-20.804,7.246-22.629c7.773-0.873,11.09,11.141,6.283,19.466
				C1534.189,706.247,1528.023,709.126,1523.799,704.147z"/>
			<path d="M1581.046,677.082c1.252-14.402,22.455-4.348,20.461,12.299C1599.954,702.478,1579.865,692.687,1581.046,677.082z"/>
		</g>
	</g>
</g>
</svg>
